<svg width="48" height="48" viewBox="0 0 48 48" fill="none" xmlns="http://www.w3.org/2000/svg" role="img" aria-label="AvukatAjanda Logo">
  <defs>
    <linearGradient id="shieldGradient" x1="0%" y1="0%" x2="100%" y2="100%">
      <stop offset="0%" style="stop-color:#2A5C85;stop-opacity:1" />
      <stop offset="100%" style="stop-color:#1D8A62;stop-opacity:1" />
    </linearGradient>
  </defs>
  
  <!-- Shield shape -->
  <path d="M24 4C24 4 8 8 8 24C8 36 24 44 24 44C24 44 40 36 40 24C40 8 24 4 24 4Z" 
        fill="url(#shieldGradient)"/>
  
  <!-- Scales of justice -->
  <!-- Central pillar -->
  <line x1="24" y1="14" x2="24" y2="30" 
        stroke="white" 
        stroke-width="2" 
        stroke-linecap="round"/>
  
  <!-- Horizontal beam -->
  <line x1="16" y1="18" x2="32" y2="18" 
        stroke="white" 
        stroke-width="2" 
        stroke-linecap="round"/>
  
  <!-- Left scale pan -->
  <path d="M14 18L14 24L18 24L18 18" 
        stroke="white" 
        stroke-width="1.5" 
        stroke-linecap="round" 
        stroke-linejoin="round"
        fill="none"/>
  
  <!-- Right scale pan -->
  <path d="M30 18L30 24L34 24L34 18" 
        stroke="white" 
        stroke-width="1.5" 
        stroke-linecap="round" 
        stroke-linejoin="round"
        fill="none"/>
  
  <!-- Base -->
  <path d="M20 30L28 30" 
        stroke="white" 
        stroke-width="2" 
        stroke-linecap="round"/>
</svg>
