<svg width="16" height="16" viewBox="0 0 16 16" fill="none" xmlns="http://www.w3.org/2000/svg">
  <!-- Simplified monochrome version for Safari pinned tab -->
  <g fill="#000000">
    <!-- Shield -->
    <path d="M8 1C8 1 2 2.5 2 8C2 12 8 15 8 15C8 15 14 12 14 8C14 2.5 8 1 8 1ZM8 13C8 13 4 11 4 8C4 4 8 3 8 3C8 3 12 4 12 8C12 11 8 13 8 13Z"/>
    
    <!-- Scales (simplified) -->
    <rect x="7.5" y="5" width="1" height="6" />
    <rect x="5" y="6" width="6" height="1" />
    <circle cx="5.5" cy="7.5" r="1" />
    <circle cx="10.5" cy="7.5" r="1" />
  </g>
</svg>
